# xmcd
#
# Track frame offsets: 
#        150
#        17914
#        38573
#        54295
#        69806
#        86894
#        104360
#        118325
#        130364
#        140963
#        161697
#        187315
#        199453
#        212226
#        231004
#        249396
#        266817
#        289564
#        305389
#        325517
#
# Disc length: 4532 seconds
#
# Revision: 0
# Processed by: cddbd v1.5.2PL0 Copyright (c) Steve Scherf et al.
# Submitted via: ExactAudioCopy v1.3
#
DISCID=3111b214
DTITLE=Puskas - Latter og Tårer
DYEAR=2010
DGENRE=Blues
TTITLE0=40414
TTITLE1=Å så tro
TTITLE2=Ho ho ho
TTITLE3=Dansevise
TTITLE4=Alt jeg gjør
TTITLE5=Kvifor
TTITLE6=Leksene til torsdag
TTITLE7=Tørst og aleine
TTITLE8=Gråte i natt
TTITLE9=Skoleveien
TTITLE10=Jenta fra Nord-Norge
TTITLE11=Stødig
TTITLE12=Mamma
TTITLE13=Quanta costa
TTITLE14=Hymm hymm
TTITLE15=Dritevise
TTITLE16=Av og til
TTITLE17=Dongeriblues
TTITLE18=Angelina
TTITLE19=På innsia
EXTD=
EXTT0=
EXTT1=
EXTT2=
EXTT3=
EXTT4=
EXTT5=
EXTT6=
EXTT7=
EXTT8=
EXTT9=
EXTT10=
EXTT11=
EXTT12=
EXTT13=
EXTT14=
EXTT15=
EXTT16=
EXTT17=
EXTT18=
EXTT19=
PLAYORDER=
